<?xml version="1.0" encoding="UTF-8"?>
<svg version="1.1" xmlns="http://www.w3.org/2000/svg" width="125" height="125">
<path d="M0 0 C41.25 0 82.5 0 125 0 C125 41.25 125 82.5 125 125 C83.75 125 42.5 125 0 125 C0 83.75 0 42.5 0 0 Z " fill="#202020" transform="translate(0,0)"/>
<path d="M0 0 C8.87730814 4.77609561 12.64590702 14.42740966 16.16015625 23.34375 C16.49345947 24.18347855 16.8267627 25.02320709 17.17016602 25.88838196 C22.92567865 40.50607598 28.37704289 55.24374934 33.88189697 69.95709229 C35.14260863 73.32439704 36.40621775 76.69061148 37.66981506 80.05683422 C38.88745331 83.30156206 40.1034875 86.5468891 41.31900024 89.79241371 C41.89908549 91.3408131 42.47962918 92.88904082 43.06063843 94.43709373 C43.8636517 96.57749929 44.66455067 98.71868357 45.46484375 100.86010742 C45.92036621 102.07663498 46.37588867 103.29316254 46.84521484 104.54655457 C47.81640625 107.265625 47.81640625 107.265625 47.81640625 108.265625 C43.19640625 108.265625 38.57640625 108.265625 33.81640625 108.265625 C29.66683124 98.62815785 26.04424827 88.84989692 22.51269531 78.97241211 C21.55894992 76.30728922 20.59811079 73.64479461 19.63671875 70.98242188 C19.02431536 69.27619387 18.4123212 67.56981891 17.80078125 65.86328125 C17.5153949 65.07365494 17.23000854 64.28402863 16.93597412 63.47047424 C16.67189758 62.72877487 16.40782104 61.9870755 16.13574219 61.22290039 C15.90433533 60.5773671 15.67292847 59.9318338 15.43450928 59.26673889 C14.72107834 56.95700007 14.25671455 54.64112399 13.81640625 52.265625 C13.57694778 52.8049617 13.33748932 53.3442984 13.09077454 53.89997864 C10.57647465 59.56272605 8.06149697 65.22517209 5.54614258 70.88745117 C4.6100997 72.99479733 3.67422406 75.10221778 2.73852539 77.2097168 C1.38603005 80.25589698 0.03291401 83.30180082 -1.3203125 86.34765625 C-1.73198166 87.27520218 -2.14365082 88.20274811 -2.5677948 89.15840149 C-5.40546928 95.54330302 -8.28551901 101.90790307 -11.18359375 108.265625 C-15.80359375 108.265625 -20.42359375 108.265625 -25.18359375 108.265625 C-21.59650823 99.42948383 -17.68634377 90.80856381 -13.59365845 82.19848633 C-12.53714388 79.97038909 -11.48859372 77.73869735 -10.44213867 75.50585938 C-7.22753219 68.65377726 -3.98386578 61.82582218 -0.5859375 55.0625 C-0.05887207 53.98774414 0.46819336 52.91298828 1.01123047 51.80566406 C1.97554039 49.84171457 2.96395111 47.88933459 3.98095703 45.95214844 C6.29073185 41.17808707 7.24102637 38.19682004 5.73828125 33.0078125 C5.12863777 31.41487813 4.49026096 29.83247691 3.81640625 28.265625 C3.40519531 27.12351562 2.99398437 25.98140625 2.5703125 24.8046875 C2.17714844 23.84304687 1.78398438 22.88140625 1.37890625 21.890625 C0.98832031 20.91351562 0.59773438 19.93640625 0.1953125 18.9296875 C-1.29419317 16.05194567 -2.65787937 14.29083085 -5.18359375 12.265625 C-7.45607416 11.55385689 -7.45607416 11.55385689 -9.80859375 11.328125 C-12.1875 10.88671875 -12.1875 10.88671875 -14.18359375 10.265625 C-16.32445043 7.01152285 -16.18359375 5.21425391 -16.18359375 1.265625 C-11.07867318 -1.64979982 -5.57231147 -1.87405109 0 0 Z " fill="#F9F9F9" transform="translate(49.18359375,9.734375)"/>
</svg>
